<svg width="4596" height="4596" viewBox="0 0 4596 4596" fill="none" xmlns="http://www.w3.org/2000/svg">
<path d="M3587.61 1194.11C3426.65 663.332 3146.1 502.302 4373.91 0C4523.06 1177.11 4370.22 995.887 3587.61 1194.11Z" fill="#D9625E"/>
<path d="M3587.61 3401.89C3426.65 3932.67 3146.1 4093.7 4373.91 4596C4523.06 3418.89 4370.22 3600.11 3587.61 3401.89Z" fill="#D9625E"/>
<path d="M1006.77 1194.11C1167.73 663.332 1448.29 502.302 220.476 0C71.3199 1177.11 224.161 995.887 1006.77 1194.11Z" fill="#D9625E"/>
<path d="M1006.77 3401.89C1167.73 3932.67 1448.29 4093.7 220.476 4596C71.3199 3418.89 224.161 3600.11 1006.77 3401.89Z" fill="#D9625E"/>
<path d="M2011.41 324.14C2109.85 73.939 2486.15 73.9397 2584.59 324.14L3025.2 1443.93C3056.15 1522.59 3122.1 1584.61 3205.74 1613.72L4396.46 2028.08C4662.51 2120.66 4662.51 2474.54 4396.46 2567.12L3205.74 2981.48C3122.1 3010.59 3056.15 3072.61 3025.2 3151.27L2584.59 4271.06C2486.15 4521.26 2109.85 4521.26 2011.41 4271.06L1570.8 3151.27C1539.85 3072.61 1473.9 3010.59 1390.26 2981.48L199.536 2567.12C-66.5126 2474.54 -66.5118 2120.66 199.537 2028.08L1390.26 1613.72C1473.9 1584.61 1539.85 1522.59 1570.8 1443.93L2011.41 324.14Z" fill="#D9625E"/>
</svg>
